o Hiken_Curvas_de_Fogo
v 0.462053 0.153250 -2.240000
v 0.402716 0.209661 -2.240000
v 0.467499 0.211584 -2.166062
v 0.392337 0.265763 -2.166062
v 0.457893 0.266378 -2.092125
v 0.384747 0.329612 -2.092125
v 0.445559 0.322176 -2.018187
v 0.383290 0.409112 -2.018187
v 0.439151 0.387251 -1.944250
v 0.381041 0.503895 -1.944250
v 0.439560 0.468235 -1.870313
v 0.367962 0.604232 -1.870313
v 0.440414 0.565514 -1.796375
v 0.338189 0.696748 -1.796375
v 0.432038 0.671759 -1.722437
v 0.292341 0.771296 -1.722437
v 0.406413 0.774262 -1.648500
v 0.235384 0.824438 -1.648500
v 0.360672 0.859856 -1.574562
v 0.173174 0.859004 -1.574562
v 0.297762 0.920109 -1.500625
v 0.109985 0.881615 -1.500625
v 0.224382 0.954453 -1.426688
v 0.047560 0.900099 -1.426688
v 0.147584 0.970026 -1.352750
v -0.014792 0.921656 -1.352750
v 0.071828 0.978615 -1.278812
v -0.079650 0.951723 -1.278812
v -0.002318 0.992314 -1.204875
v -0.150775 0.993174 -1.204875
v -0.077670 1.019725 -1.130937
v -0.232249 1.045500 -1.130937
v -0.158762 1.063825 -1.057000
v -0.327305 1.103979 -1.057000
v -0.249898 1.121643 -0.983062
v -0.436774 1.159279 -0.983062
v -0.353565 1.185206 -0.909125
v -0.557480 1.198309 -0.909125
v -0.469373 1.243112 -0.835187
v -0.681492 1.207115 -0.835187
v -0.593522 1.282374 -0.761250
v -0.797530 1.175779 -0.761250
v -0.718842 1.290637 -0.687312
v -0.895353 1.103622 -0.687312
v -0.835829 1.259038 -0.613375
v -0.972104 1.001516 -0.613375
v -0.935368 1.185622 -0.539438
v -1.037093 0.888400 -0.539438
v -1.013613 1.078193 -0.465500
v -1.110440 0.782120 -0.465500
v -1.077855 0.953993 -0.391563
v -1.213477 0.689233 -0.391563
v -1.149261 0.833334 -0.317625
v -1.354518 0.600649 -0.317625
v -1.256115 0.727399 -0.243688
v -1.518617 0.497208 -0.243688
v -1.414582 0.627334 -0.169750
v -1.669680 0.362506 -0.169750
v -1.606229 0.506599 -0.095813
v -1.766549 0.194475 -0.095813
v -1.774252 0.341307 -0.021875
v -1.785276 0.007171 -0.021875
v -1.854189 0.133723 0.052062
v -1.734160 -0.179389 0.052062
v -1.822592 -0.086653 0.126000
v -1.650584 -0.354601 0.126000
v -1.719351 -0.290359 0.199937
v -1.579159 -0.526016 0.199937
v -1.617354 -0.476030 0.273875
v -1.543699 -0.713033 0.273875
v -1.565801 -0.668126 0.347812
v -1.532035 -0.928498 0.347812
v -1.559161 -0.887789 0.421750
v -1.505507 -1.162709 0.421750
v -1.553105 -1.128806 0.495687
v -1.426687 -1.384723 0.495687
v -1.503303 -1.360242 0.569625
v -1.283924 -1.561870 0.569625
v -1.392189 -1.548073 0.643563
v -1.094619 -1.681480 0.643563
v -1.230672 -1.675021 0.717500
v -0.888468 -1.756777 0.717500
v -1.044042 -1.746538 0.791438
v -0.687729 -1.814232 0.791438
v -0.856465 -1.784412 0.865375
v -0.499265 -1.875487 0.865375
v -0.681998 -1.815467 0.939313
v -0.319084 -1.947660 0.939313
v -0.522907 -1.861422 1.013250
v -0.140889 -2.024834 1.013250
v -0.372784 -1.932650 1.087188
v 0.038376 -2.094914 1.087188
v -0.221683 -2.026239 1.161125
v 0.217379 -2.145851 1.161125
v -0.061232 -2.127851 1.235063
v 0.391826 -2.169075 1.235063
v 0.111690 -2.216519 1.309000
v 0.556575 -2.160644 1.309000
v 0.293615 -2.271097 1.382938
v 0.707448 -2.121065 1.382938
v 0.475795 -2.276623 1.456875
v 0.842433 -2.054503 1.456875
v 0.647628 -2.228696 1.530813
v 0.962315 -1.967792 1.530813
v 0.800896 -2.134509 1.604750
v 1.070913 -1.869420 1.604750
v 0.933213 -2.010332 1.678688
v 1.175040 -1.768379 1.678688
v 1.049390 -1.876453 1.752625
v 1.283961 -1.672516 1.752625
v 1.160297 -1.751332 1.826563
v 1.407815 -1.586123 1.826563
v 1.279624 -1.646638 1.900500
v 1.554345 -1.507107 1.900500
v 1.419432 -1.564255 1.974438
v 1.724004 -1.425162 1.974438
v 1.585451 -1.495690 2.048375
v 1.905213 -1.323210 2.048375
v 1.773087 -1.423974 2.122313
v 2.073596 -1.183636 2.122313
v 1.965336 -1.328095 2.196250
v 2.199074 -0.997633 2.196250
v 2.134416 -1.189752 2.270188
v 2.260429 -0.771840 2.270188
v 2.249138 -1.001067 2.344125
v 2.259579 -0.525835 2.344125
v 2.288407 -0.769889 2.418063
v 2.223780 -0.280090 2.418063
v 2.256510 -0.517758 2.492000
v 2.190290 -0.042975 2.492000
v 2.189459 -0.267858 2.565938
v 2.182221 0.192024 2.565938
v 2.167371 -0.028802 2.639875
v 2.220958 0.441707 2.639875
v 2.153689 0.214668 2.713812
v 2.202322 0.694740 2.713812
v 2.166598 0.474209 2.787750
v 2.126988 0.937603 2.787750
v 2.145367 0.744899 2.861688
v 1.981733 1.147591 2.861688
v 2.032196 0.992764 2.935625
v 1.777929 1.308730 2.935625
v 1.819056 1.178813 3.009563
v 1.540980 1.418448 3.009563
v 1.548129 1.290031 3.083500
v 1.295269 1.484103 3.083500
v 1.272708 1.343401 3.157438
v 1.055572 1.514489 3.157438
v 1.023094 1.363488 3.231375
v 0.827767 1.514008 3.231375
v 0.803409 1.361901 3.305313
v 0.614192 1.482794 3.305313
v 0.607293 1.335597 3.379250
v 0.417752 1.420091 3.379250
v 0.430803 1.276685 3.453188
v 0.242677 1.326402 3.453188
v 0.275372 1.180640 3.527125
v 0.093746 1.203206 3.527125
v 0.145349 1.048798 3.601063
v -0.024166 1.052594 3.601063
v 0.045095 0.887526 3.675000
v -0.106503 0.878703 3.675000
v -0.018253 0.486314 -2.240000
v -0.110752 0.438295 -2.240000
v -0.067146 0.519011 -2.166062
v -0.157104 0.448220 -2.166062
v -0.118627 0.536062 -2.092125
v -0.206154 0.459951 -2.092125
v -0.171139 0.543931 -2.018187
v -0.261525 0.477989 -2.018187
v -0.226245 0.550901 -1.944250
v -0.325980 0.502319 -1.944250
v -0.287670 0.563207 -1.870313
v -0.400253 0.529552 -1.870313
v -0.359037 0.582495 -1.796375
v -0.482867 0.554549 -1.796375
v -0.441630 0.605577 -1.722437
v -0.570465 0.571741 -1.722437
v -0.533332 0.626176 -1.648500
v -0.658296 0.576070 -1.648500
v -0.629094 0.637462 -1.574562
v -0.740800 0.563716 -1.574562
v -0.722462 0.634182 -1.500625
v -0.812495 0.532796 -1.500625
v -0.807376 0.613732 -1.426688
v -0.869375 0.483969 -1.426688
v -0.879601 0.576211 -1.352750
v -0.910763 0.420581 -1.352750
v -0.937592 0.523799 -1.278812
v -0.941044 0.347828 -1.278812
v -0.982869 0.459866 -1.204875
v -0.970055 0.270694 -1.204875
v -1.020059 0.387947 -1.130937
v -1.010763 0.191145 -1.130937
v -1.056542 0.310616 -1.057000
v -1.073748 0.106152 -1.057000
v -1.101303 0.228206 -0.983062
v -1.160100 0.008470 -0.983062
v -1.162306 0.137686 -0.909125
v -1.256616 -0.108999 -0.909125
v -1.241933 0.032601 -0.835187
v -1.337563 -0.247045 -0.835187
v -1.331354 -0.094511 -0.761250
v -1.374428 -0.396407 -0.761250
v -1.407465 -0.246453 -0.687312
v -1.349956 -0.540445 -0.687312
v -1.438262 -0.414857 -0.613375
v -1.268700 -0.664601 -0.613375
v -1.399619 -0.579684 -0.539438
v -1.156680 -0.767713 -0.539438
v -1.295451 -0.721267 -0.465500
v -1.048245 -0.867021 -0.465500
v -1.162193 -0.840069 -0.391563
v -0.966243 -0.990604 -0.391563
v -1.045262 -0.964285 -0.317625
v -0.907331 -1.158338 -0.317625
v -0.962897 -1.128898 -0.243688
v -0.843286 -1.361987 -0.243688
v -0.891990 -1.339103 -0.169750
v -0.739914 -1.560144 -0.169750
v -0.791431 -1.554558 -0.095813
v -0.581723 -1.697583 -0.095813
v -0.639175 -1.714207 -0.021875
v -0.383243 -1.740814 -0.021875
v -0.447414 -1.780099 0.052062
v -0.176340 -1.704361 0.052062
v -0.247071 -1.761723 0.126000
v 0.016360 -1.643899 0.126000
v -0.062036 -1.705025 0.199937
v 0.197808 -1.618048 0.199937
v 0.104270 -1.661375 0.273875
v 0.388002 -1.648702 0.273875
v 0.264655 -1.661053 0.347812
v 0.600545 -1.711035 0.347812
v 0.435027 -1.704225 0.421750
v 0.827305 -1.756786 0.421750
v 0.623028 -1.767659 0.495687
v 1.043086 -1.747407 0.495687
v 0.823671 -1.818703 0.569625
v 1.222468 -1.672363 0.569625
v 1.021820 -1.828808 0.643563
v 1.353602 -1.546314 0.643563
v 1.198752 -1.782434 0.717500
v 1.441141 -1.395040 0.717500
v 1.339664 -1.680057 0.791438
v 1.500680 -1.242231 0.791438
v 1.439473 -1.535818 0.865375
v 1.550949 -1.102818 0.865375
v 1.505051 -1.371379 0.939313
v 1.608090 -0.982215 0.939313
v 1.553204 -1.208276 1.013250
v 1.682980 -0.878502 1.013250
v 1.605109 -1.061356 1.087188
v 1.780574 -0.785105 1.087188
v 1.679221 -0.935297 1.161125
v 1.899901 -0.692935 1.161125
v 1.785192 -0.824968 1.235063
v 2.033849 -0.592011 1.235063
v 1.920737 -0.718865 1.309000
v 2.168799 -0.473088 1.309000
v 2.072106 -0.603953 1.382938
v 2.284964 -0.329804 1.382938
v 2.217508 -0.470132 1.456875
v 2.358981 -0.161249 1.456875
v 2.332216 -0.313204 1.530813
v 2.370096 0.026133 1.530813
v 2.394222 -0.135912 1.604750
v 2.309570 0.219458 1.604750
v 2.389779 0.052990 1.678688
v 2.189524 0.404997 1.678688
v 2.318351 0.241681 1.752625
v 2.044289 0.577522 1.752625
v 2.195853 0.420276 1.826563
v 1.918292 0.747676 1.826563
v 2.053770 0.587236 1.900500
v 1.842505 0.939093 1.900500
v 1.930823 0.754492 1.974438
v 1.812813 1.171975 1.974438
v 1.855763 0.946014 2.048375
v 1.787700 1.441792 2.048375
v 1.826623 1.184473 2.122313
v 1.711469 1.710701 2.122313
v 1.801131 1.468000 2.196250
v 1.549018 1.923612 2.196250
v 1.714365 1.753328 2.270188
v 1.307119 2.041716 2.270188
v 1.521703 1.969290 2.344125
v 1.026741 2.069901 2.344125
v 1.235471 2.065540 2.418063
v 0.753462 2.056581 2.418063
v 0.917093 2.060530 2.492000
v 0.508898 2.064112 2.492000
v 0.625927 2.036573 2.565938
v 0.283126 2.129218 2.565938
v 0.379153 2.101146 2.639875
v 0.051451 2.267934 2.639875
v 0.134176 2.199059 2.713812
v -0.204441 2.352183 2.713812
v -0.123316 2.299333 2.787750
v -0.466624 2.353142 2.787750
v -0.384758 2.322058 2.861688
v -0.704080 2.242473 2.861688
v -0.617522 2.228276 2.935625
v -0.890380 2.038931 2.935625
v -0.793103 2.034747 3.009563
v -1.020520 1.791532 3.009563
v -0.904895 1.789871 3.083500
v -1.109621 1.548176 3.083500
v -0.966088 1.541653 3.157438
v -1.177396 1.333390 3.157438
v -0.996951 1.319205 3.231375
v -1.232947 1.146659 3.231375
v -1.013179 1.130489 3.305313
v -1.270735 0.975258 3.305313
v -1.020505 0.969189 3.379250
v -1.277200 0.808245 3.379250
v -1.015127 0.823523 3.453188
v -1.240429 0.643070 3.453188
v -0.987510 0.683166 3.527125
v -1.156325 0.484651 3.527125
v -0.927340 0.543193 3.601063
v -1.029520 0.341034 3.601063
v -0.828140 0.405168 3.675000
v -0.870701 0.219408 3.675000
v -0.447175 0.145781 -2.240000
v -0.468568 0.072743 -2.240000
v -0.501628 0.121393 -2.166062
v -0.509656 0.043771 -2.166062
v -0.549756 0.089997 -2.092125
v -0.545135 0.009557 -2.092125
v -0.592069 0.053054 -2.018187
v -0.577114 -0.029680 -2.018187
v -0.630507 0.011544 -1.944250
v -0.608127 -0.074505 -1.944250
v -0.667464 -0.034428 -1.870313
v -0.640365 -0.126286 -1.870313
v -0.704736 -0.085644 -1.796375
v -0.674770 -0.186946 -1.796375
v -0.742717 -0.143449 -1.722437
v -0.710175 -0.258329 -1.722437
v -0.779977 -0.209240 -1.648500
v -0.742786 -0.341216 -1.648500
v -0.813314 -0.283896 -1.574562
v -0.766454 -0.434236 -1.574562
v -0.838281 -0.367317 -1.500625
v -0.774003 -0.533210 -1.500625
v -0.850168 -0.458240 -1.426688
v -0.759513 -0.631606 -1.426688
v -0.845117 -0.554457 -1.352750
v -0.720776 -0.722556 -1.352750
v -0.820874 -0.653329 -1.278812
v -0.660661 -0.802050 -1.278812
v -0.776830 -0.752249 -1.204875
v -0.586170 -0.871896 -1.204875
v -0.713651 -0.848982 -1.130937
v -0.505010 -0.940339 -1.130937
v -0.633209 -0.942503 -1.057000
v -0.421108 -1.018746 -1.057000
v -0.538475 -1.034759 -0.983062
v -0.331733 -1.114701 -0.983062
v -0.431750 -1.131137 -0.909125
v -0.228701 -1.224424 -0.909125
v -0.311516 -1.235376 -0.835187
v -0.104087 -1.329363 -0.835187
v -0.172545 -1.339644 -0.761250
v 0.042470 -1.401337 -0.761250
v -0.012785 -1.420491 -0.687312
v 0.200463 -1.416575 -0.687312
v 0.159080 -1.451091 -0.613375
v 0.354013 -1.372019 -0.613375
v 0.326461 -1.422937 -0.539438
v 0.494792 -1.291831 -0.539438
v 0.478371 -1.355750 -0.465500
v 0.632341 -1.214943 -0.465500
v 0.619801 -1.284218 -0.391563
v 0.789476 -1.168424 -0.391563
v 0.767351 -1.233536 -0.317625
v 0.981571 -1.146637 -0.317625
v 0.934206 -1.204786 -0.243688
v 1.196201 -1.115328 -0.243688
v 1.118100 -1.178944 -0.169750
v 1.394025 -1.038661 -0.169750
v 1.301065 -1.132087 -0.095813
v 1.533587 -0.905668 -0.095813
v 1.459071 -1.049282 -0.021875
v 1.599389 -0.734539 -0.021875
v 1.573915 -0.930016 0.052062
v 1.610150 -0.555578 0.052062
v 1.640889 -0.785321 0.126000
v 1.603812 -0.390925 0.126000
v 1.669803 -0.630673 0.199937
v 1.614622 -0.246065 0.199937
v 1.680332 -0.478892 0.273875
v 1.658682 -0.114047 0.273875
v 1.694330 -0.335810 0.347812
v 1.732888 0.015600 0.347812
v 1.728056 -0.199669 0.421750
v 1.822173 0.150337 0.421750
v 1.786889 -0.063759 0.495687
v 1.907948 0.292514 0.495687
v 1.864115 0.079268 0.569625
v 1.973739 0.440222 0.569625
v 1.943878 0.233399 0.643563
v 2.007569 0.589054 0.643563
v 2.006901 0.397213 0.717500
v 2.002389 0.733610 0.717500
v 2.036686 0.564403 0.791438
v 1.955971 0.868616 0.791438
v 2.023992 0.726302 0.865375
v 1.871041 0.990041 0.865375
v 1.968477 0.875164 0.939313
v 1.755574 1.096663 0.939313
v 1.877587 1.006911 1.013250
v 1.622459 1.192064 1.013250
v 1.763654 1.122606 1.087188
v 1.487352 1.286238 1.087188
v 1.640316 1.228524 1.161125
v 1.363905 1.395001 1.161125
v 1.519055 1.334958 1.235063
v 1.257148 1.535093 1.235063
v 1.406216 1.453912 1.309000
v 1.158280 1.714468 1.309000
v 1.300738 1.595546 1.382938
v 1.045673 1.921342 1.382938
v 1.193128 1.763252 1.456875
v 0.894859 2.119952 1.456875
v 1.066831 1.947943 1.530813
v 0.693758 2.260949 1.530813
v 0.903553 2.124120 1.604750
v 0.452708 2.306034 1.604750
v 0.692741 2.253031 1.678688
v 0.199511 2.253647 1.678688
v 0.441136 2.298330 1.752625
v -0.039722 2.146381 1.752625
v 0.173102 2.251897 1.826563
v -0.260146 2.050075 1.826563
v -0.085420 2.151891 1.900500
v -0.481515 2.014627 1.900500
v -0.330687 2.067797 1.974438
v -0.730285 2.041715 1.974438
v -0.586916 2.049671 2.048375
v -1.012868 2.081906 2.048375
v -0.878450 2.081218 2.122313
v -1.301250 2.064446 2.122313
v -1.191925 2.086909 2.196250
v -1.544818 1.940913 2.196250
v -1.472768 1.993175 2.270188
v -1.703141 1.714180 2.270188
v -1.666150 1.785940 2.344125
v -1.777018 1.433648 2.344125
v -1.762104 1.513369 2.418063
v -1.813116 1.161016 2.418063
v -1.801830 1.242101 2.492000
v -1.875325 0.931842 2.492000
v -1.845194 1.013327 2.565938
v -2.001840 0.740284 2.565938
v -1.956666 0.840282 2.639875
v -2.206877 0.561856 2.639875
v -2.075184 0.673044 2.713812
v -2.362734 0.350044 2.713812
v -2.199407 0.505243 2.787750
v -2.436646 0.117529 2.787750
v -2.289137 0.326354 2.861688
v -2.397491 -0.112262 2.861688
v -2.312057 0.139866 2.935625
v -2.257021 -0.312156 2.935625
v -2.253746 -0.041593 3.009563
v -2.055013 -0.467007 3.009563
v -2.119075 -0.203355 3.083500
v -1.835508 -0.577477 3.083500
v -1.927822 -0.334574 3.157438
v -1.629781 -0.654127 3.157438
v -1.707371 -0.431358 3.231375
v -1.451205 -0.709084 3.231375
v -1.484697 -0.496888 3.305313
v -1.298723 -0.750449 3.305313
v -1.279499 -0.538850 3.379250
v -1.163353 -0.780551 3.379250
v -1.100169 -0.565208 3.453188
v -1.033944 -0.796764 3.453188
v -0.943766 -0.579973 3.527125
v -0.900989 -0.793293 3.527125
v -0.799942 -0.580843 3.601063
v -0.758793 -0.763118 3.601063
v -0.657239 -0.559970 3.675000
v -0.606704 -0.699999 3.675000
v -0.321699 -0.345973 -2.240000
v -0.258546 -0.379949 -2.240000
v -0.322123 -0.398534 -2.166062
v -0.247213 -0.432880 -2.166062
v -0.312888 -0.448669 -2.092125
v -0.227249 -0.486050 -2.092125
v -0.294987 -0.497042 -2.018187
v -0.199336 -0.541164 -2.018187
v -0.269900 -0.546446 -1.944250
v -0.163282 -0.599825 -1.944250
v -0.238555 -0.601469 -1.870313
v -0.117790 -0.661956 -1.870313
v -0.199960 -0.666607 -1.796375
v -0.061097 -0.724716 -1.796375
v -0.150461 -0.742716 -1.722437
v 0.007846 -0.782768 -1.722437
v -0.084948 -0.823346 -1.648500
v 0.088443 -0.829986 -1.648500
v -0.000339 -0.894438 -1.574562
v 0.178489 -0.861721 -1.574562
v 0.100973 -0.940208 -1.500625
v 0.275183 -0.876292 -1.500625
v 0.211701 -0.952972 -1.426688
v 0.376382 -0.874766 -1.426688
v 0.325253 -0.938610 -1.352750
v 0.481142 -0.859257 -1.352750
v 0.441064 -0.910996 -1.278812
v 0.589204 -0.831059 -1.278812
v 0.563173 -0.879714 -1.204875
v 0.700169 -0.790049 -1.204875
v 0.693407 -0.843390 -1.130937
v 0.813494 -0.735579 -1.130937
v 0.827493 -0.794288 -1.057000
v 0.929229 -0.667321 -1.057000
v 0.958064 -0.726811 -0.983062
v 1.047459 -0.584504 -0.983062
v 1.079342 -0.640615 -0.909125
v 1.164732 -0.484519 -0.909125
v 1.187724 -0.538126 -0.835187
v 1.270023 -0.364089 -0.835187
v 1.279562 -0.422072 -0.761250
v 1.346642 -0.223849 -0.761250
v 1.350810 -0.295560 -0.687312
v 1.382623 -0.071552 -0.687312
v 1.399560 -0.162687 -0.613375
v 1.381820 0.081514 -0.613375
v 1.428440 -0.027668 -0.539438
v 1.363879 0.228863 -0.539438
v 1.444135 0.106988 -0.465500
v 1.351161 0.373188 -0.465500
v 1.454196 0.241502 -0.391563
v 1.353914 0.521935 -0.391563
v 1.463330 0.378085 -0.317625
v 1.365886 0.678782 -0.317625
v 1.471312 0.518938 -0.243688
v 1.371548 0.839167 -0.243688
v 1.473331 0.664210 -0.169750
v 1.356819 0.992707 -0.169750
v 1.462328 0.811046 -0.095813
v 1.315500 1.129069 -0.095813
v 1.432090 0.954184 -0.021875
v 1.249529 1.242584 -0.021875
v 1.379751 1.087828 0.052062
v 1.165631 1.333561 0.052062
v 1.306766 1.207925 0.126000
v 1.071517 1.407037 0.126000
v 1.218095 1.313795 0.199937
v 0.973308 1.470536 0.199937
v 1.120134 1.408387 0.273875
v 0.874363 1.531976 0.273875
v 1.018335 1.497029 0.347812
v 0.775041 1.598024 0.347812
v 0.915467 1.585236 0.421750
v 0.673005 1.672836 0.421750
v 0.811048 1.676442 0.495687
v 0.563882 1.757040 0.495687
v 0.701955 1.770451 0.569625
v 0.442345 1.847058 0.569625
v 0.583820 1.863061 0.643563
v 0.303600 1.935076 0.643563
v 0.452680 1.946968 0.717500
v 0.145066 2.009958 0.717500
v 0.306361 2.013745 0.791438
v -0.032209 2.059216 0.791438
v 0.145121 2.056448 0.865375
v -0.223029 2.071977 0.865375
v -0.028770 2.071999 0.939313
v -0.419072 2.042603 0.939313
v -0.212453 2.062052 1.013250
v -0.611886 1.974016 1.013250
v -0.404071 2.031345 1.087188
v -0.797376 1.878638 1.087188
v -0.603259 1.983999 1.161125
v -0.979414 1.774480 1.161125
v -0.810014 1.920596 1.235063
v -1.168856 1.676135 1.235063
v -1.023494 1.838953 1.309000
v -1.375817 1.584980 1.309000
v -1.242622 1.737368 1.382938
v -1.598243 1.485829 1.382938
v -1.466426 1.614613 1.456875
v -1.814920 1.354562 1.456875
v -1.688867 1.464995 1.530813
v -1.990808 1.173502 1.530813
v -1.890155 1.277301 1.604750
v -2.095187 0.944379 1.604750
v -2.038942 1.045670 1.678688
v -2.122911 0.688782 1.678688
v -2.114123 0.782537 1.752625
v -2.103548 0.434184 1.752625
v -2.128433 0.514728 1.826563
v -2.088057 0.194906 1.826563
v -2.125052 0.262986 1.900500
v -2.117352 -0.036880 1.900500
v -2.145419 0.027482 1.974438
v -2.192592 -0.281174 1.974438
v -2.198477 -0.205427 2.048375
v -2.270206 -0.547893 2.048375
v -2.257949 -0.444901 2.122313
v -2.288534 -0.821488 2.122313
v -2.284519 -0.684971 2.196250
v -2.207952 -1.067491 2.196250
v -2.250891 -0.908573 2.270188
v -2.034777 -1.256634 2.270188
v -2.153223 -1.099133 2.344125
v -1.813118 -1.386011 2.344125
v -2.007566 -1.249781 2.418063
v -1.595122 -1.480206 2.418063
v -1.838940 -1.365731 2.492000
v -1.413781 -1.573818 2.492000
v -1.670676 -1.460948 2.565938
v -1.274226 -1.690919 2.565938
v -1.536840 -1.571756 2.639875
v -1.176642 -1.858236 2.639875
v -1.390170 -1.660058 2.713812
v -1.061461 -2.000887 2.713812
v -1.253345 -1.752792 2.787750
v -0.934616 -2.120679 2.787750
v -1.117660 -1.844992 2.861688
v -0.791468 -2.196585 2.861688
v -0.973664 -1.923452 2.935625
v -0.634868 -2.216109 2.935625
v -0.815795 -1.971027 3.009563
v -0.471879 -2.176241 3.009563
v -0.644964 -1.972429 3.083500
v -0.310847 -2.081829 3.083500
v -0.468371 -1.919486 3.157438
v -0.159485 -1.943305 3.157438
v -0.296878 -1.813904 3.231375
v -0.023750 -1.774610 3.231375
v -0.141279 -1.666523 3.305313
v 0.092885 -1.591238 3.305313
v -0.009156 -1.493521 3.379250
v 0.189804 -1.407844 3.379250
v 0.096440 -1.311208 3.453188
v 0.268845 -1.235096 3.453188
v 0.176198 -1.131432 3.527125
v 0.332478 -1.076344 3.527125
v 0.232262 -0.959164 3.601063
v 0.380512 -0.925986 3.601063
v 0.265585 -0.792858 3.675000
v 0.406922 -0.772128 3.675000
v 0.193804 -0.448956 -2.240000
v 0.273853 -0.386943 -2.240000
v 0.258836 -0.474903 -2.166062
v 0.326955 -0.381147 -2.166062
v 0.323386 -0.476715 -2.092125
v 0.378979 -0.365031 -2.092125
v 0.382069 -0.455051 -2.018187
v 0.435662 -0.344810 -2.018187
v 0.436973 -0.419588 -1.944250
v 0.504495 -0.323577 -1.944250
v 0.499965 -0.382981 -1.870313
v 0.589405 -0.298580 -1.870313
v 0.585350 -0.350052 -1.796375
v 0.685735 -0.262194 -1.796375
v 0.695332 -0.312188 -1.722437
v 0.779441 -0.206625 -1.722437
v 0.811477 -0.254473 -1.648500
v 0.852800 -0.129482 -1.648500
v 0.903787 -0.169763 -1.574562
v 0.894516 -0.035756 -1.574562
v 0.951903 -0.065194 -1.500625
v 0.907354 0.066179 -1.500625
v 0.959266 0.045235 -1.426688
v 0.906225 0.171635 -1.426688
v 0.948029 0.153128 -1.352750
v 0.906660 0.283028 -1.352750
v 0.941456 0.260734 -1.278812
v 0.912833 0.405758 -1.278812
v 0.949526 0.375881 -1.204875
v 0.915588 0.540644 -1.204875
v 0.966483 0.503544 -1.130937
v 0.901233 0.680869 -1.130937
v 0.977789 0.641134 -1.057000
v 0.861737 0.815972 -1.057000
v 0.969219 0.779450 -0.983062
v 0.797847 0.937770 -0.983062
v 0.932911 0.907091 -0.909125
v 0.715648 1.042788 -0.909125
v 0.869010 1.015296 -0.835187
v 0.622183 1.131261 -0.835187
v 0.783917 1.101154 -0.761250
v 0.523317 1.205697 -0.761250
v 0.686820 1.168372 -0.687312
v 0.423202 1.270201 -0.687312
v 0.586044 1.225646 -0.613375
v 0.324045 1.329666 -0.613375
v 0.486433 1.283340 -0.539438
v 0.226038 1.388295 -0.539438
v 0.388461 1.349644 -0.465500
v 0.127785 1.448050 -0.465500
v 0.289154 1.427581 -0.391563
v 0.027174 1.507871 -0.391563
v 0.184226 1.513842 -0.317625
v -0.077684 1.563865 -0.317625
v 0.070433 1.599778 -0.243688
v -0.187742 1.610208 -0.243688
v -0.052808 1.673995 -0.169750
v -0.302649 1.640427 -0.169750
v -0.183037 1.725555 -0.095813
v -0.420779 1.648952 -0.095813
v -0.315579 1.746770 -0.021875
v -0.539774 1.632823 -0.021875
v -0.445141 1.734959 0.052062
v -0.657717 1.593199 0.052062
v -0.567671 1.693016 0.126000
v -0.774761 1.535868 0.126000
v -0.682068 1.628873 0.199937
v -0.894440 1.469749 0.199937
v -0.791421 1.553943 0.273875
v -1.023318 1.403020 0.273875
v -0.903377 1.480435 0.347812
v -1.167924 1.338185 0.347812
v -1.028905 1.417410 0.421750
v -1.329563 1.269071 0.421750
v -1.178580 1.366059 0.495687
v -1.500071 1.182712 0.495687
v -1.356139 1.316074 0.569625
v -1.662421 1.066109 0.569625
v -1.551369 1.246454 0.643563
v -1.797521 0.913809 0.643563
v -1.737697 1.133638 0.717500
v -1.893634 0.730872 0.717500
v -1.880913 0.965093 0.791438
v -1.951931 0.529057 0.791438
v -1.959104 0.749179 0.865375
v -1.984003 0.319432 0.865375
v -1.980871 0.510404 0.939313
v -2.003221 0.107104 0.939313
v -1.982285 0.270647 1.013250
v -2.016309 -0.108646 1.013250
v -1.998469 0.033585 1.087188
v -2.020744 -0.330295 1.087188
v -2.033891 -0.210959 1.161125
v -2.008599 -0.558250 1.161125
v -2.061257 -0.468704 1.235063
v -1.972461 -0.790036 1.235063
v -2.048216 -0.730833 1.309000
v -1.908197 -1.021561 1.309000
v -1.981727 -0.981165 1.382938
v -1.813254 -1.247376 1.382938
v -1.869197 -1.207743 1.456875
v -1.684291 -1.458815 1.456875
v -1.725140 -1.405929 1.530813
v -1.518931 -1.643367 1.530813
v -1.561640 -1.575144 1.604750
v -1.321172 -1.789575 1.604750
v -1.387539 -1.717030 1.678688
v -1.104064 -1.896089 1.678688
v -1.210112 -1.836210 1.752625
v -0.884516 -1.976300 1.752625
v -1.034659 -1.939941 1.826563
v -0.673623 -2.051416 1.826563
v -0.863041 -2.035115 1.900500
v -0.471626 -2.135674 1.900500
v -0.693600 -2.124682 1.974438
v -0.272081 -2.225988 1.974438
v -0.522952 -2.206083 2.048375
v -0.070465 -2.304478 2.048375
v -0.348415 -2.272496 2.122313
v 0.130800 -2.350613 2.122313
v -0.169657 -2.315941 2.196250
v 0.323990 -2.352858 2.196250
v 0.011081 -2.330680 2.270188
v 0.501291 -2.312776 2.270188
v 0.190063 -2.315578 2.344125
v 0.659025 -2.241712 2.344125
v 0.363805 -2.274686 2.418063
v 0.798766 -2.154444 2.418063
v 0.530648 -2.215935 2.492000
v 0.925965 -2.063771 2.492000
v 0.691473 -2.148458 2.565938
v 1.047653 -1.977612 2.565938
v 0.859841 -2.105643 2.639875
v 1.185042 -1.922141 2.639875
v 1.011007 -2.019952 2.713812
v 1.303530 -1.830236 2.713812
v 1.154443 -1.923225 2.787750
v 1.417999 -1.726873 2.787750
v 1.285950 -1.810645 2.861688
v 1.523635 -1.605248 2.861688
v 1.398128 -1.676368 2.935625
v 1.612527 -1.459575 2.935625
v 1.482028 -1.516872 3.009563
v 1.675447 -1.287661 3.009563
v 1.529964 -1.333415 3.083500
v 1.704290 -1.092441 3.083500
v 1.538383 -1.132627 3.157438
v 1.694189 -0.881729 3.157438
v 1.509437 -0.924928 3.231375
v 1.644463 -0.666408 3.231375
v 1.450144 -0.721381 3.305313
v 1.558575 -0.458118 3.305313
v 1.368979 -0.530475 3.379250
v 1.443744 -0.267244 3.379250
v 1.271429 -0.356740 3.453188
v 1.309709 -0.101246 3.453188
v 1.157460 -0.202209 3.527125
v 1.165220 0.036179 3.527125
v 1.023394 -0.069547 3.601063
v 1.013253 0.143639 3.601063
v 0.867110 0.036068 3.675000
v 0.849824 0.218390 3.675000
vt 0.000000 0.000000
vt 1.000000 0.000000
vt 0.000000 0.012500
vt 1.000000 0.012500
vt 0.000000 0.025000
vt 1.000000 0.025000
vt 0.000000 0.037500
vt 1.000000 0.037500
vt 0.000000 0.050000
vt 1.000000 0.050000
vt 0.000000 0.062500
vt 1.000000 0.062500
vt 0.000000 0.075000
vt 1.000000 0.075000
vt 0.000000 0.087500
vt 1.000000 0.087500
vt 0.000000 0.100000
vt 1.000000 0.100000
vt 0.000000 0.112500
vt 1.000000 0.112500
vt 0.000000 0.125000
vt 1.000000 0.125000
vt 0.000000 0.137500
vt 1.000000 0.137500
vt 0.000000 0.150000
vt 1.000000 0.150000
vt 0.000000 0.162500
vt 1.000000 0.162500
vt 0.000000 0.175000
vt 1.000000 0.175000
vt 0.000000 0.187500
vt 1.000000 0.187500
vt 0.000000 0.200000
vt 1.000000 0.200000
vt 0.000000 0.212500
vt 1.000000 0.212500
vt 0.000000 0.225000
vt 1.000000 0.225000
vt 0.000000 0.237500
vt 1.000000 0.237500
vt 0.000000 0.250000
vt 1.000000 0.250000
vt 0.000000 0.262500
vt 1.000000 0.262500
vt 0.000000 0.275000
vt 1.000000 0.275000
vt 0.000000 0.287500
vt 1.000000 0.287500
vt 0.000000 0.300000
vt 1.000000 0.300000
vt 0.000000 0.312500
vt 1.000000 0.312500
vt 0.000000 0.325000
vt 1.000000 0.325000
vt 0.000000 0.337500
vt 1.000000 0.337500
vt 0.000000 0.350000
vt 1.000000 0.350000
vt 0.000000 0.362500
vt 1.000000 0.362500
vt 0.000000 0.375000
vt 1.000000 0.375000
vt 0.000000 0.387500
vt 1.000000 0.387500
vt 0.000000 0.400000
vt 1.000000 0.400000
vt 0.000000 0.412500
vt 1.000000 0.412500
vt 0.000000 0.425000
vt 1.000000 0.425000
vt 0.000000 0.437500
vt 1.000000 0.437500
vt 0.000000 0.450000
vt 1.000000 0.450000
vt 0.000000 0.462500
vt 1.000000 0.462500
vt 0.000000 0.475000
vt 1.000000 0.475000
vt 0.000000 0.487500
vt 1.000000 0.487500
vt 0.000000 0.500000
vt 1.000000 0.500000
vt 0.000000 0.512500
vt 1.000000 0.512500
vt 0.000000 0.525000
vt 1.000000 0.525000
vt 0.000000 0.537500
vt 1.000000 0.537500
vt 0.000000 0.550000
vt 1.000000 0.550000
vt 0.000000 0.562500
vt 1.000000 0.562500
vt 0.000000 0.575000
vt 1.000000 0.575000
vt 0.000000 0.587500
vt 1.000000 0.587500
vt 0.000000 0.600000
vt 1.000000 0.600000
vt 0.000000 0.612500
vt 1.000000 0.612500
vt 0.000000 0.625000
vt 1.000000 0.625000
vt 0.000000 0.637500
vt 1.000000 0.637500
vt 0.000000 0.650000
vt 1.000000 0.650000
vt 0.000000 0.662500
vt 1.000000 0.662500
vt 0.000000 0.675000
vt 1.000000 0.675000
vt 0.000000 0.687500
vt 1.000000 0.687500
vt 0.000000 0.700000
vt 1.000000 0.700000
vt 0.000000 0.712500
vt 1.000000 0.712500
vt 0.000000 0.725000
vt 1.000000 0.725000
vt 0.000000 0.737500
vt 1.000000 0.737500
vt 0.000000 0.750000
vt 1.000000 0.750000
vt 0.000000 0.762500
vt 1.000000 0.762500
vt 0.000000 0.775000
vt 1.000000 0.775000
vt 0.000000 0.787500
vt 1.000000 0.787500
vt 0.000000 0.800000
vt 1.000000 0.800000
vt 0.000000 0.812500
vt 1.000000 0.812500
vt 0.000000 0.825000
vt 1.000000 0.825000
vt 0.000000 0.837500
vt 1.000000 0.837500
vt 0.000000 0.850000
vt 1.000000 0.850000
vt 0.000000 0.862500
vt 1.000000 0.862500
vt 0.000000 0.875000
vt 1.000000 0.875000
vt 0.000000 0.887500
vt 1.000000 0.887500
vt 0.000000 0.900000
vt 1.000000 0.900000
vt 0.000000 0.912500
vt 1.000000 0.912500
vt 0.000000 0.925000
vt 1.000000 0.925000
vt 0.000000 0.937500
vt 1.000000 0.937500
vt 0.000000 0.950000
vt 1.000000 0.950000
vt 0.000000 0.962500
vt 1.000000 0.962500
vt 0.000000 0.975000
vt 1.000000 0.975000
vt 0.000000 0.987500
vt 1.000000 0.987500
vt 0.000000 1.000000
vt 1.000000 1.000000
vt 0.000000 0.000000
vt 1.000000 0.000000
vt 0.000000 0.012500
vt 1.000000 0.012500
vt 0.000000 0.025000
vt 1.000000 0.025000
vt 0.000000 0.037500
vt 1.000000 0.037500
vt 0.000000 0.050000
vt 1.000000 0.050000
vt 0.000000 0.062500
vt 1.000000 0.062500
vt 0.000000 0.075000
vt 1.000000 0.075000
vt 0.000000 0.087500
vt 1.000000 0.087500
vt 0.000000 0.100000
vt 1.000000 0.100000
vt 0.000000 0.112500
vt 1.000000 0.112500
vt 0.000000 0.125000
vt 1.000000 0.125000
vt 0.000000 0.137500
vt 1.000000 0.137500
vt 0.000000 0.150000
vt 1.000000 0.150000
vt 0.000000 0.162500
vt 1.000000 0.162500
vt 0.000000 0.175000
vt 1.000000 0.175000
vt 0.000000 0.187500
vt 1.000000 0.187500
vt 0.000000 0.200000
vt 1.000000 0.200000
vt 0.000000 0.212500
vt 1.000000 0.212500
vt 0.000000 0.225000
vt 1.000000 0.225000
vt 0.000000 0.237500
vt 1.000000 0.237500
vt 0.000000 0.250000
vt 1.000000 0.250000
vt 0.000000 0.262500
vt 1.000000 0.262500
vt 0.000000 0.275000
vt 1.000000 0.275000
vt 0.000000 0.287500
vt 1.000000 0.287500
vt 0.000000 0.300000
vt 1.000000 0.300000
vt 0.000000 0.312500
vt 1.000000 0.312500
vt 0.000000 0.325000
vt 1.000000 0.325000
vt 0.000000 0.337500
vt 1.000000 0.337500
vt 0.000000 0.350000
vt 1.000000 0.350000
vt 0.000000 0.362500
vt 1.000000 0.362500
vt 0.000000 0.375000
vt 1.000000 0.375000
vt 0.000000 0.387500
vt 1.000000 0.387500
vt 0.000000 0.400000
vt 1.000000 0.400000
vt 0.000000 0.412500
vt 1.000000 0.412500
vt 0.000000 0.425000
vt 1.000000 0.425000
vt 0.000000 0.437500
vt 1.000000 0.437500
vt 0.000000 0.450000
vt 1.000000 0.450000
vt 0.000000 0.462500
vt 1.000000 0.462500
vt 0.000000 0.475000
vt 1.000000 0.475000
vt 0.000000 0.487500
vt 1.000000 0.487500
vt 0.000000 0.500000
vt 1.000000 0.500000
vt 0.000000 0.512500
vt 1.000000 0.512500
vt 0.000000 0.525000
vt 1.000000 0.525000
vt 0.000000 0.537500
vt 1.000000 0.537500
vt 0.000000 0.550000
vt 1.000000 0.550000
vt 0.000000 0.562500
vt 1.000000 0.562500
vt 0.000000 0.575000
vt 1.000000 0.575000
vt 0.000000 0.587500
vt 1.000000 0.587500
vt 0.000000 0.600000
vt 1.000000 0.600000
vt 0.000000 0.612500
vt 1.000000 0.612500
vt 0.000000 0.625000
vt 1.000000 0.625000
vt 0.000000 0.637500
vt 1.000000 0.637500
vt 0.000000 0.650000
vt 1.000000 0.650000
vt 0.000000 0.662500
vt 1.000000 0.662500
vt 0.000000 0.675000
vt 1.000000 0.675000
vt 0.000000 0.687500
vt 1.000000 0.687500
vt 0.000000 0.700000
vt 1.000000 0.700000
vt 0.000000 0.712500
vt 1.000000 0.712500
vt 0.000000 0.725000
vt 1.000000 0.725000
vt 0.000000 0.737500
vt 1.000000 0.737500
vt 0.000000 0.750000
vt 1.000000 0.750000
vt 0.000000 0.762500
vt 1.000000 0.762500
vt 0.000000 0.775000
vt 1.000000 0.775000
vt 0.000000 0.787500
vt 1.000000 0.787500
vt 0.000000 0.800000
vt 1.000000 0.800000
vt 0.000000 0.812500
vt 1.000000 0.812500
vt 0.000000 0.825000
vt 1.000000 0.825000
vt 0.000000 0.837500
vt 1.000000 0.837500
vt 0.000000 0.850000
vt 1.000000 0.850000
vt 0.000000 0.862500
vt 1.000000 0.862500
vt 0.000000 0.875000
vt 1.000000 0.875000
vt 0.000000 0.887500
vt 1.000000 0.887500
vt 0.000000 0.900000
vt 1.000000 0.900000
vt 0.000000 0.912500
vt 1.000000 0.912500
vt 0.000000 0.925000
vt 1.000000 0.925000
vt 0.000000 0.937500
vt 1.000000 0.937500
vt 0.000000 0.950000
vt 1.000000 0.950000
vt 0.000000 0.962500
vt 1.000000 0.962500
vt 0.000000 0.975000
vt 1.000000 0.975000
vt 0.000000 0.987500
vt 1.000000 0.987500
vt 0.000000 1.000000
vt 1.000000 1.000000
vt 0.000000 0.000000
vt 1.000000 0.000000
vt 0.000000 0.012500
vt 1.000000 0.012500
vt 0.000000 0.025000
vt 1.000000 0.025000
vt 0.000000 0.037500
vt 1.000000 0.037500
vt 0.000000 0.050000
vt 1.000000 0.050000
vt 0.000000 0.062500
vt 1.000000 0.062500
vt 0.000000 0.075000
vt 1.000000 0.075000
vt 0.000000 0.087500
vt 1.000000 0.087500
vt 0.000000 0.100000
vt 1.000000 0.100000
vt 0.000000 0.112500
vt 1.000000 0.112500
vt 0.000000 0.125000
vt 1.000000 0.125000
vt 0.000000 0.137500
vt 1.000000 0.137500
vt 0.000000 0.150000
vt 1.000000 0.150000
vt 0.000000 0.162500
vt 1.000000 0.162500
vt 0.000000 0.175000
vt 1.000000 0.175000
vt 0.000000 0.187500
vt 1.000000 0.187500
vt 0.000000 0.200000
vt 1.000000 0.200000
vt 0.000000 0.212500
vt 1.000000 0.212500
vt 0.000000 0.225000
vt 1.000000 0.225000
vt 0.000000 0.237500
vt 1.000000 0.237500
vt 0.000000 0.250000
vt 1.000000 0.250000
vt 0.000000 0.262500
vt 1.000000 0.262500
vt 0.000000 0.275000
vt 1.000000 0.275000
vt 0.000000 0.287500
vt 1.000000 0.287500
vt 0.000000 0.300000
vt 1.000000 0.300000
vt 0.000000 0.312500
vt 1.000000 0.312500
vt 0.000000 0.325000
vt 1.000000 0.325000
vt 0.000000 0.337500
vt 1.000000 0.337500
vt 0.000000 0.350000
vt 1.000000 0.350000
vt 0.000000 0.362500
vt 1.000000 0.362500
vt 0.000000 0.375000
vt 1.000000 0.375000
vt 0.000000 0.387500
vt 1.000000 0.387500
vt 0.000000 0.400000
vt 1.000000 0.400000
vt 0.000000 0.412500
vt 1.000000 0.412500
vt 0.000000 0.425000
vt 1.000000 0.425000
vt 0.000000 0.437500
vt 1.000000 0.437500
vt 0.000000 0.450000
vt 1.000000 0.450000
vt 0.000000 0.462500
vt 1.000000 0.462500
vt 0.000000 0.475000
vt 1.000000 0.475000
vt 0.000000 0.487500
vt 1.000000 0.487500
vt 0.000000 0.500000
vt 1.000000 0.500000
vt 0.000000 0.512500
vt 1.000000 0.512500
vt 0.000000 0.525000
vt 1.000000 0.525000
vt 0.000000 0.537500
vt 1.000000 0.537500
vt 0.000000 0.550000
vt 1.000000 0.550000
vt 0.000000 0.562500
vt 1.000000 0.562500
vt 0.000000 0.575000
vt 1.000000 0.575000
vt 0.000000 0.587500
vt 1.000000 0.587500
vt 0.000000 0.600000
vt 1.000000 0.600000
vt 0.000000 0.612500
vt 1.000000 0.612500
vt 0.000000 0.625000
vt 1.000000 0.625000
vt 0.000000 0.637500
vt 1.000000 0.637500
vt 0.000000 0.650000
vt 1.000000 0.650000
vt 0.000000 0.662500
vt 1.000000 0.662500
vt 0.000000 0.675000
vt 1.000000 0.675000
vt 0.000000 0.687500
vt 1.000000 0.687500
vt 0.000000 0.700000
vt 1.000000 0.700000
vt 0.000000 0.712500
vt 1.000000 0.712500
vt 0.000000 0.725000
vt 1.000000 0.725000
vt 0.000000 0.737500
vt 1.000000 0.737500
vt 0.000000 0.750000
vt 1.000000 0.750000
vt 0.000000 0.762500
vt 1.000000 0.762500
vt 0.000000 0.775000
vt 1.000000 0.775000
vt 0.000000 0.787500
vt 1.000000 0.787500
vt 0.000000 0.800000
vt 1.000000 0.800000
vt 0.000000 0.812500
vt 1.000000 0.812500
vt 0.000000 0.825000
vt 1.000000 0.825000
vt 0.000000 0.837500
vt 1.000000 0.837500
vt 0.000000 0.850000
vt 1.000000 0.850000
vt 0.000000 0.862500
vt 1.000000 0.862500
vt 0.000000 0.875000
vt 1.000000 0.875000
vt 0.000000 0.887500
vt 1.000000 0.887500
vt 0.000000 0.900000
vt 1.000000 0.900000
vt 0.000000 0.912500
vt 1.000000 0.912500
vt 0.000000 0.925000
vt 1.000000 0.925000
vt 0.000000 0.937500
vt 1.000000 0.937500
vt 0.000000 0.950000
vt 1.000000 0.950000
vt 0.000000 0.962500
vt 1.000000 0.962500
vt 0.000000 0.975000
vt 1.000000 0.975000
vt 0.000000 0.987500
vt 1.000000 0.987500
vt 0.000000 1.000000
vt 1.000000 1.000000
vt 0.000000 0.000000
vt 1.000000 0.000000
vt 0.000000 0.012500
vt 1.000000 0.012500
vt 0.000000 0.025000
vt 1.000000 0.025000
vt 0.000000 0.037500
vt 1.000000 0.037500
vt 0.000000 0.050000
vt 1.000000 0.050000
vt 0.000000 0.062500
vt 1.000000 0.062500
vt 0.000000 0.075000
vt 1.000000 0.075000
vt 0.000000 0.087500
vt 1.000000 0.087500
vt 0.000000 0.100000
vt 1.000000 0.100000
vt 0.000000 0.112500
vt 1.000000 0.112500
vt 0.000000 0.125000
vt 1.000000 0.125000
vt 0.000000 0.137500
vt 1.000000 0.137500
vt 0.000000 0.150000
vt 1.000000 0.150000
vt 0.000000 0.162500
vt 1.000000 0.162500
vt 0.000000 0.175000
vt 1.000000 0.175000
vt 0.000000 0.187500
vt 1.000000 0.187500
vt 0.000000 0.200000
vt 1.000000 0.200000
vt 0.000000 0.212500
vt 1.000000 0.212500
vt 0.000000 0.225000
vt 1.000000 0.225000
vt 0.000000 0.237500
vt 1.000000 0.237500
vt 0.000000 0.250000
vt 1.000000 0.250000
vt 0.000000 0.262500
vt 1.000000 0.262500
vt 0.000000 0.275000
vt 1.000000 0.275000
vt 0.000000 0.287500
vt 1.000000 0.287500
vt 0.000000 0.300000
vt 1.000000 0.300000
vt 0.000000 0.312500
vt 1.000000 0.312500
vt 0.000000 0.325000
vt 1.000000 0.325000
vt 0.000000 0.337500
vt 1.000000 0.337500
vt 0.000000 0.350000
vt 1.000000 0.350000
vt 0.000000 0.362500
vt 1.000000 0.362500
vt 0.000000 0.375000
vt 1.000000 0.375000
vt 0.000000 0.387500
vt 1.000000 0.387500
vt 0.000000 0.400000
vt 1.000000 0.400000
vt 0.000000 0.412500
vt 1.000000 0.412500
vt 0.000000 0.425000
vt 1.000000 0.425000
vt 0.000000 0.437500
vt 1.000000 0.437500
vt 0.000000 0.450000
vt 1.000000 0.450000
vt 0.000000 0.462500
vt 1.000000 0.462500
vt 0.000000 0.475000
vt 1.000000 0.475000
vt 0.000000 0.487500
vt 1.000000 0.487500
vt 0.000000 0.500000
vt 1.000000 0.500000
vt 0.000000 0.512500
vt 1.000000 0.512500
vt 0.000000 0.525000
vt 1.000000 0.525000
vt 0.000000 0.537500
vt 1.000000 0.537500
vt 0.000000 0.550000
vt 1.000000 0.550000
vt 0.000000 0.562500
vt 1.000000 0.562500
vt 0.000000 0.575000
vt 1.000000 0.575000
vt 0.000000 0.587500
vt 1.000000 0.587500
vt 0.000000 0.600000
vt 1.000000 0.600000
vt 0.000000 0.612500
vt 1.000000 0.612500
vt 0.000000 0.625000
vt 1.000000 0.625000
vt 0.000000 0.637500
vt 1.000000 0.637500
vt 0.000000 0.650000
vt 1.000000 0.650000
vt 0.000000 0.662500
vt 1.000000 0.662500
vt 0.000000 0.675000
vt 1.000000 0.675000
vt 0.000000 0.687500
vt 1.000000 0.687500
vt 0.000000 0.700000
vt 1.000000 0.700000
vt 0.000000 0.712500
vt 1.000000 0.712500
vt 0.000000 0.725000
vt 1.000000 0.725000
vt 0.000000 0.737500
vt 1.000000 0.737500
vt 0.000000 0.750000
vt 1.000000 0.750000
vt 0.000000 0.762500
vt 1.000000 0.762500
vt 0.000000 0.775000
vt 1.000000 0.775000
vt 0.000000 0.787500
vt 1.000000 0.787500
vt 0.000000 0.800000
vt 1.000000 0.800000
vt 0.000000 0.812500
vt 1.000000 0.812500
vt 0.000000 0.825000
vt 1.000000 0.825000
vt 0.000000 0.837500
vt 1.000000 0.837500
vt 0.000000 0.850000
vt 1.000000 0.850000
vt 0.000000 0.862500
vt 1.000000 0.862500
vt 0.000000 0.875000
vt 1.000000 0.875000
vt 0.000000 0.887500
vt 1.000000 0.887500
vt 0.000000 0.900000
vt 1.000000 0.900000
vt 0.000000 0.912500
vt 1.000000 0.912500
vt 0.000000 0.925000
vt 1.000000 0.925000
vt 0.000000 0.937500
vt 1.000000 0.937500
vt 0.000000 0.950000
vt 1.000000 0.950000
vt 0.000000 0.962500
vt 1.000000 0.962500
vt 0.000000 0.975000
vt 1.000000 0.975000
vt 0.000000 0.987500
vt 1.000000 0.987500
vt 0.000000 1.000000
vt 1.000000 1.000000
vt 0.000000 0.000000
vt 1.000000 0.000000
vt 0.000000 0.012500
vt 1.000000 0.012500
vt 0.000000 0.025000
vt 1.000000 0.025000
vt 0.000000 0.037500
vt 1.000000 0.037500
vt 0.000000 0.050000
vt 1.000000 0.050000
vt 0.000000 0.062500
vt 1.000000 0.062500
vt 0.000000 0.075000
vt 1.000000 0.075000
vt 0.000000 0.087500
vt 1.000000 0.087500
vt 0.000000 0.100000
vt 1.000000 0.100000
vt 0.000000 0.112500
vt 1.000000 0.112500
vt 0.000000 0.125000
vt 1.000000 0.125000
vt 0.000000 0.137500
vt 1.000000 0.137500
vt 0.000000 0.150000
vt 1.000000 0.150000
vt 0.000000 0.162500
vt 1.000000 0.162500
vt 0.000000 0.175000
vt 1.000000 0.175000
vt 0.000000 0.187500
vt 1.000000 0.187500
vt 0.000000 0.200000
vt 1.000000 0.200000
vt 0.000000 0.212500
vt 1.000000 0.212500
vt 0.000000 0.225000
vt 1.000000 0.225000
vt 0.000000 0.237500
vt 1.000000 0.237500
vt 0.000000 0.250000
vt 1.000000 0.250000
vt 0.000000 0.262500
vt 1.000000 0.262500
vt 0.000000 0.275000
vt 1.000000 0.275000
vt 0.000000 0.287500
vt 1.000000 0.287500
vt 0.000000 0.300000
vt 1.000000 0.300000
vt 0.000000 0.312500
vt 1.000000 0.312500
vt 0.000000 0.325000
vt 1.000000 0.325000
vt 0.000000 0.337500
vt 1.000000 0.337500
vt 0.000000 0.350000
vt 1.000000 0.350000
vt 0.000000 0.362500
vt 1.000000 0.362500
vt 0.000000 0.375000
vt 1.000000 0.375000
vt 0.000000 0.387500
vt 1.000000 0.387500
vt 0.000000 0.400000
vt 1.000000 0.400000
vt 0.000000 0.412500
vt 1.000000 0.412500
vt 0.000000 0.425000
vt 1.000000 0.425000
vt 0.000000 0.437500
vt 1.000000 0.437500
vt 0.000000 0.450000
vt 1.000000 0.450000
vt 0.000000 0.462500
vt 1.000000 0.462500
vt 0.000000 0.475000
vt 1.000000 0.475000
vt 0.000000 0.487500
vt 1.000000 0.487500
vt 0.000000 0.500000
vt 1.000000 0.500000
vt 0.000000 0.512500
vt 1.000000 0.512500
vt 0.000000 0.525000
vt 1.000000 0.525000
vt 0.000000 0.537500
vt 1.000000 0.537500
vt 0.000000 0.550000
vt 1.000000 0.550000
vt 0.000000 0.562500
vt 1.000000 0.562500
vt 0.000000 0.575000
vt 1.000000 0.575000
vt 0.000000 0.587500
vt 1.000000 0.587500
vt 0.000000 0.600000
vt 1.000000 0.600000
vt 0.000000 0.612500
vt 1.000000 0.612500
vt 0.000000 0.625000
vt 1.000000 0.625000
vt 0.000000 0.637500
vt 1.000000 0.637500
vt 0.000000 0.650000
vt 1.000000 0.650000
vt 0.000000 0.662500
vt 1.000000 0.662500
vt 0.000000 0.675000
vt 1.000000 0.675000
vt 0.000000 0.687500
vt 1.000000 0.687500
vt 0.000000 0.700000
vt 1.000000 0.700000
vt 0.000000 0.712500
vt 1.000000 0.712500
vt 0.000000 0.725000
vt 1.000000 0.725000
vt 0.000000 0.737500
vt 1.000000 0.737500
vt 0.000000 0.750000
vt 1.000000 0.750000
vt 0.000000 0.762500
vt 1.000000 0.762500
vt 0.000000 0.775000
vt 1.000000 0.775000
vt 0.000000 0.787500
vt 1.000000 0.787500
vt 0.000000 0.800000
vt 1.000000 0.800000
vt 0.000000 0.812500
vt 1.000000 0.812500
vt 0.000000 0.825000
vt 1.000000 0.825000
vt 0.000000 0.837500
vt 1.000000 0.837500
vt 0.000000 0.850000
vt 1.000000 0.850000
vt 0.000000 0.862500
vt 1.000000 0.862500
vt 0.000000 0.875000
vt 1.000000 0.875000
vt 0.000000 0.887500
vt 1.000000 0.887500
vt 0.000000 0.900000
vt 1.000000 0.900000
vt 0.000000 0.912500
vt 1.000000 0.912500
vt 0.000000 0.925000
vt 1.000000 0.925000
vt 0.000000 0.937500
vt 1.000000 0.937500
vt 0.000000 0.950000
vt 1.000000 0.950000
vt 0.000000 0.962500
vt 1.000000 0.962500
vt 0.000000 0.975000
vt 1.000000 0.975000
vt 0.000000 0.987500
vt 1.000000 0.987500
vt 0.000000 1.000000
vt 1.000000 1.000000
f 1/1 3/3 2/2
f 2/2 3/3 4/4
f 3/3 5/5 4/4
f 4/4 5/5 6/6
f 5/5 7/7 6/6
f 6/6 7/7 8/8
f 7/7 9/9 8/8
f 8/8 9/9 10/10
f 9/9 11/11 10/10
f 10/10 11/11 12/12
f 11/11 13/13 12/12
f 12/12 13/13 14/14
f 13/13 15/15 14/14
f 14/14 15/15 16/16
f 15/15 17/17 16/16
f 16/16 17/17 18/18
f 17/17 19/19 18/18
f 18/18 19/19 20/20
f 19/19 21/21 20/20
f 20/20 21/21 22/22
f 21/21 23/23 22/22
f 22/22 23/23 24/24
f 23/23 25/25 24/24
f 24/24 25/25 26/26
f 25/25 27/27 26/26
f 26/26 27/27 28/28
f 27/27 29/29 28/28
f 28/28 29/29 30/30
f 29/29 31/31 30/30
f 30/30 31/31 32/32
f 31/31 33/33 32/32
f 32/32 33/33 34/34
f 33/33 35/35 34/34
f 34/34 35/35 36/36
f 35/35 37/37 36/36
f 36/36 37/37 38/38
f 37/37 39/39 38/38
f 38/38 39/39 40/40
f 39/39 41/41 40/40
f 40/40 41/41 42/42
f 41/41 43/43 42/42
f 42/42 43/43 44/44
f 43/43 45/45 44/44
f 44/44 45/45 46/46
f 45/45 47/47 46/46
f 46/46 47/47 48/48
f 47/47 49/49 48/48
f 48/48 49/49 50/50
f 49/49 51/51 50/50
f 50/50 51/51 52/52
f 51/51 53/53 52/52
f 52/52 53/53 54/54
f 53/53 55/55 54/54
f 54/54 55/55 56/56
f 55/55 57/57 56/56
f 56/56 57/57 58/58
f 57/57 59/59 58/58
f 58/58 59/59 60/60
f 59/59 61/61 60/60
f 60/60 61/61 62/62
f 61/61 63/63 62/62
f 62/62 63/63 64/64
f 63/63 65/65 64/64
f 64/64 65/65 66/66
f 65/65 67/67 66/66
f 66/66 67/67 68/68
f 67/67 69/69 68/68
f 68/68 69/69 70/70
f 69/69 71/71 70/70
f 70/70 71/71 72/72
f 71/71 73/73 72/72
f 72/72 73/73 74/74
f 73/73 75/75 74/74
f 74/74 75/75 76/76
f 75/75 77/77 76/76
f 76/76 77/77 78/78
f 77/77 79/79 78/78
f 78/78 79/79 80/80
f 79/79 81/81 80/80
f 80/80 81/81 82/82
f 81/81 83/83 82/82
f 82/82 83/83 84/84
f 83/83 85/85 84/84
f 84/84 85/85 86/86
f 85/85 87/87 86/86
f 86/86 87/87 88/88
f 87/87 89/89 88/88
f 88/88 89/89 90/90
f 89/89 91/91 90/90
f 90/90 91/91 92/92
f 91/91 93/93 92/92
f 92/92 93/93 94/94
f 93/93 95/95 94/94
f 94/94 95/95 96/96
f 95/95 97/97 96/96
f 96/96 97/97 98/98
f 97/97 99/99 98/98
f 98/98 99/99 100/100
f 99/99 101/101 100/100
f 100/100 101/101 102/102
f 101/101 103/103 102/102
f 102/102 103/103 104/104
f 103/103 105/105 104/104
f 104/104 105/105 106/106
f 105/105 107/107 106/106
f 106/106 107/107 108/108
f 107/107 109/109 108/108
f 108/108 109/109 110/110
f 109/109 111/111 110/110
f 110/110 111/111 112/112
f 111/111 113/113 112/112
f 112/112 113/113 114/114
f 113/113 115/115 114/114
f 114/114 115/115 116/116
f 115/115 117/117 116/116
f 116/116 117/117 118/118
f 117/117 119/119 118/118
f 118/118 119/119 120/120
f 119/119 121/121 120/120
f 120/120 121/121 122/122
f 121/121 123/123 122/122
f 122/122 123/123 124/124
f 123/123 125/125 124/124
f 124/124 125/125 126/126
f 125/125 127/127 126/126
f 126/126 127/127 128/128
f 127/127 129/129 128/128
f 128/128 129/129 130/130
f 129/129 131/131 130/130
f 130/130 131/131 132/132
f 131/131 133/133 132/132
f 132/132 133/133 134/134
f 133/133 135/135 134/134
f 134/134 135/135 136/136
f 135/135 137/137 136/136
f 136/136 137/137 138/138
f 137/137 139/139 138/138
f 138/138 139/139 140/140
f 139/139 141/141 140/140
f 140/140 141/141 142/142
f 141/141 143/143 142/142
f 142/142 143/143 144/144
f 143/143 145/145 144/144
f 144/144 145/145 146/146
f 145/145 147/147 146/146
f 146/146 147/147 148/148
f 147/147 149/149 148/148
f 148/148 149/149 150/150
f 149/149 151/151 150/150
f 150/150 151/151 152/152
f 151/151 153/153 152/152
f 152/152 153/153 154/154
f 153/153 155/155 154/154
f 154/154 155/155 156/156
f 155/155 157/157 156/156
f 156/156 157/157 158/158
f 157/157 159/159 158/158
f 158/158 159/159 160/160
f 159/159 161/161 160/160
f 160/160 161/161 162/162
f 163/163 165/165 164/164
f 164/164 165/165 166/166
f 165/165 167/167 166/166
f 166/166 167/167 168/168
f 167/167 169/169 168/168
f 168/168 169/169 170/170
f 169/169 171/171 170/170
f 170/170 171/171 172/172
f 171/171 173/173 172/172
f 172/172 173/173 174/174
f 173/173 175/175 174/174
f 174/174 175/175 176/176
f 175/175 177/177 176/176
f 176/176 177/177 178/178
f 177/177 179/179 178/178
f 178/178 179/179 180/180
f 179/179 181/181 180/180
f 180/180 181/181 182/182
f 181/181 183/183 182/182
f 182/182 183/183 184/184
f 183/183 185/185 184/184
f 184/184 185/185 186/186
f 185/185 187/187 186/186
f 186/186 187/187 188/188
f 187/187 189/189 188/188
f 188/188 189/189 190/190
f 189/189 191/191 190/190
f 190/190 191/191 192/192
f 191/191 193/193 192/192
f 192/192 193/193 194/194
f 193/193 195/195 194/194
f 194/194 195/195 196/196
f 195/195 197/197 196/196
f 196/196 197/197 198/198
f 197/197 199/199 198/198
f 198/198 199/199 200/200
f 199/199 201/201 200/200
f 200/200 201/201 202/202
f 201/201 203/203 202/202
f 202/202 203/203 204/204
f 203/203 205/205 204/204
f 204/204 205/205 206/206
f 205/205 207/207 206/206
f 206/206 207/207 208/208
f 207/207 209/209 208/208
f 208/208 209/209 210/210
f 209/209 211/211 210/210
f 210/210 211/211 212/212
f 211/211 213/213 212/212
f 212/212 213/213 214/214
f 213/213 215/215 214/214
f 214/214 215/215 216/216
f 215/215 217/217 216/216
f 216/216 217/217 218/218
f 217/217 219/219 218/218
f 218/218 219/219 220/220
f 219/219 221/221 220/220
f 220/220 221/221 222/222
f 221/221 223/223 222/222
f 222/222 223/223 224/224
f 223/223 225/225 224/224
f 224/224 225/225 226/226
f 225/225 227/227 226/226
f 226/226 227/227 228/228
f 227/227 229/229 228/228
f 228/228 229/229 230/230
f 229/229 231/231 230/230
f 230/230 231/231 232/232
f 231/231 233/233 232/232
f 232/232 233/233 234/234
f 233/233 235/235 234/234
f 234/234 235/235 236/236
f 235/235 237/237 236/236
f 236/236 237/237 238/238
f 237/237 239/239 238/238
f 238/238 239/239 240/240
f 239/239 241/241 240/240
f 240/240 241/241 242/242
f 241/241 243/243 242/242
f 242/242 243/243 244/244
f 243/243 245/245 244/244
f 244/244 245/245 246/246
f 245/245 247/247 246/246
f 246/246 247/247 248/248
f 247/247 249/249 248/248
f 248/248 249/249 250/250
f 249/249 251/251 250/250
f 250/250 251/251 252/252
f 251/251 253/253 252/252
f 252/252 253/253 254/254
f 253/253 255/255 254/254
f 254/254 255/255 256/256
f 255/255 257/257 256/256
f 256/256 257/257 258/258
f 257/257 259/259 258/258
f 258/258 259/259 260/260
f 259/259 261/261 260/260
f 260/260 261/261 262/262
f 261/261 263/263 262/262
f 262/262 263/263 264/264
f 263/263 265/265 264/264
f 264/264 265/265 266/266
f 265/265 267/267 266/266
f 266/266 267/267 268/268
f 267/267 269/269 268/268
f 268/268 269/269 270/270
f 269/269 271/271 270/270
f 270/270 271/271 272/272
f 271/271 273/273 272/272
f 272/272 273/273 274/274
f 273/273 275/275 274/274
f 274/274 275/275 276/276
f 275/275 277/277 276/276
f 276/276 277/277 278/278
f 277/277 279/279 278/278
f 278/278 279/279 280/280
f 279/279 281/281 280/280
f 280/280 281/281 282/282
f 281/281 283/283 282/282
f 282/282 283/283 284/284
f 283/283 285/285 284/284
f 284/284 285/285 286/286
f 285/285 287/287 286/286
f 286/286 287/287 288/288
f 287/287 289/289 288/288
f 288/288 289/289 290/290
f 289/289 291/291 290/290
f 290/290 291/291 292/292
f 291/291 293/293 292/292
f 292/292 293/293 294/294
f 293/293 295/295 294/294
f 294/294 295/295 296/296
f 295/295 297/297 296/296
f 296/296 297/297 298/298
f 297/297 299/299 298/298
f 298/298 299/299 300/300
f 299/299 301/301 300/300
f 300/300 301/301 302/302
f 301/301 303/303 302/302
f 302/302 303/303 304/304
f 303/303 305/305 304/304
f 304/304 305/305 306/306
f 305/305 307/307 306/306
f 306/306 307/307 308/308
f 307/307 309/309 308/308
f 308/308 309/309 310/310
f 309/309 311/311 310/310
f 310/310 311/311 312/312
f 311/311 313/313 312/312
f 312/312 313/313 314/314
f 313/313 315/315 314/314
f 314/314 315/315 316/316
f 315/315 317/317 316/316
f 316/316 317/317 318/318
f 317/317 319/319 318/318
f 318/318 319/319 320/320
f 319/319 321/321 320/320
f 320/320 321/321 322/322
f 321/321 323/323 322/322
f 322/322 323/323 324/324
f 325/325 327/327 326/326
f 326/326 327/327 328/328
f 327/327 329/329 328/328
f 328/328 329/329 330/330
f 329/329 331/331 330/330
f 330/330 331/331 332/332
f 331/331 333/333 332/332
f 332/332 333/333 334/334
f 333/333 335/335 334/334
f 334/334 335/335 336/336
f 335/335 337/337 336/336
f 336/336 337/337 338/338
f 337/337 339/339 338/338
f 338/338 339/339 340/340
f 339/339 341/341 340/340
f 340/340 341/341 342/342
f 341/341 343/343 342/342
f 342/342 343/343 344/344
f 343/343 345/345 344/344
f 344/344 345/345 346/346
f 345/345 347/347 346/346
f 346/346 347/347 348/348
f 347/347 349/349 348/348
f 348/348 349/349 350/350
f 349/349 351/351 350/350
f 350/350 351/351 352/352
f 351/351 353/353 352/352
f 352/352 353/353 354/354
f 353/353 355/355 354/354
f 354/354 355/355 356/356
f 355/355 357/357 356/356
f 356/356 357/357 358/358
f 357/357 359/359 358/358
f 358/358 359/359 360/360
f 359/359 361/361 360/360
f 360/360 361/361 362/362
f 361/361 363/363 362/362
f 362/362 363/363 364/364
f 363/363 365/365 364/364
f 364/364 365/365 366/366
f 365/365 367/367 366/366
f 366/366 367/367 368/368
f 367/367 369/369 368/368
f 368/368 369/369 370/370
f 369/369 371/371 370/370
f 370/370 371/371 372/372
f 371/371 373/373 372/372
f 372/372 373/373 374/374
f 373/373 375/375 374/374
f 374/374 375/375 376/376
f 375/375 377/377 376/376
f 376/376 377/377 378/378
f 377/377 379/379 378/378
f 378/378 379/379 380/380
f 379/379 381/381 380/380
f 380/380 381/381 382/382
f 381/381 383/383 382/382
f 382/382 383/383 384/384
f 383/383 385/385 384/384
f 384/384 385/385 386/386
f 385/385 387/387 386/386
f 386/386 387/387 388/388
f 387/387 389/389 388/388
f 388/388 389/389 390/390
f 389/389 391/391 390/390
f 390/390 391/391 392/392
f 391/391 393/393 392/392
f 392/392 393/393 394/394
f 393/393 395/395 394/394
f 394/394 395/395 396/396
f 395/395 397/397 396/396
f 396/396 397/397 398/398
f 397/397 399/399 398/398
f 398/398 399/399 400/400
f 399/399 401/401 400/400
f 400/400 401/401 402/402
f 401/401 403/403 402/402
f 402/402 403/403 404/404
f 403/403 405/405 404/404
f 404/404 405/405 406/406
f 405/405 407/407 406/406
f 406/406 407/407 408/408
f 407/407 409/409 408/408
f 408/408 409/409 410/410
f 409/409 411/411 410/410
f 410/410 411/411 412/412
f 411/411 413/413 412/412
f 412/412 413/413 414/414
f 413/413 415/415 414/414
f 414/414 415/415 416/416
f 415/415 417/417 416/416
f 416/416 417/417 418/418
f 417/417 419/419 418/418
f 418/418 419/419 420/420
f 419/419 421/421 420/420
f 420/420 421/421 422/422
f 421/421 423/423 422/422
f 422/422 423/423 424/424
f 423/423 425/425 424/424
f 424/424 425/425 426/426
f 425/425 427/427 426/426
f 426/426 427/427 428/428
f 427/427 429/429 428/428
f 428/428 429/429 430/430
f 429/429 431/431 430/430
f 430/430 431/431 432/432
f 431/431 433/433 432/432
f 432/432 433/433 434/434
f 433/433 435/435 434/434
f 434/434 435/435 436/436
f 435/435 437/437 436/436
f 436/436 437/437 438/438
f 437/437 439/439 438/438
f 438/438 439/439 440/440
f 439/439 441/441 440/440
f 440/440 441/441 442/442
f 441/441 443/443 442/442
f 442/442 443/443 444/444
f 443/443 445/445 444/444
f 444/444 445/445 446/446
f 445/445 447/447 446/446
f 446/446 447/447 448/448
f 447/447 449/449 448/448
f 448/448 449/449 450/450
f 449/449 451/451 450/450
f 450/450 451/451 452/452
f 451/451 453/453 452/452
f 452/452 453/453 454/454
f 453/453 455/455 454/454
f 454/454 455/455 456/456
f 455/455 457/457 456/456
f 456/456 457/457 458/458
f 457/457 459/459 458/458
f 458/458 459/459 460/460
f 459/459 461/461 460/460
f 460/460 461/461 462/462
f 461/461 463/463 462/462
f 462/462 463/463 464/464
f 463/463 465/465 464/464
f 464/464 465/465 466/466
f 465/465 467/467 466/466
f 466/466 467/467 468/468
f 467/467 469/469 468/468
f 468/468 469/469 470/470
f 469/469 471/471 470/470
f 470/470 471/471 472/472
f 471/471 473/473 472/472
f 472/472 473/473 474/474
f 473/473 475/475 474/474
f 474/474 475/475 476/476
f 475/475 477/477 476/476
f 476/476 477/477 478/478
f 477/477 479/479 478/478
f 478/478 479/479 480/480
f 479/479 481/481 480/480
f 480/480 481/481 482/482
f 481/481 483/483 482/482
f 482/482 483/483 484/484
f 483/483 485/485 484/484
f 484/484 485/485 486/486
f 487/487 489/489 488/488
f 488/488 489/489 490/490
f 489/489 491/491 490/490
f 490/490 491/491 492/492
f 491/491 493/493 492/492
f 492/492 493/493 494/494
f 493/493 495/495 494/494
f 494/494 495/495 496/496
f 495/495 497/497 496/496
f 496/496 497/497 498/498
f 497/497 499/499 498/498
f 498/498 499/499 500/500
f 499/499 501/501 500/500
f 500/500 501/501 502/502
f 501/501 503/503 502/502
f 502/502 503/503 504/504
f 503/503 505/505 504/504
f 504/504 505/505 506/506
f 505/505 507/507 506/506
f 506/506 507/507 508/508
f 507/507 509/509 508/508
f 508/508 509/509 510/510
f 509/509 511/511 510/510
f 510/510 511/511 512/512
f 511/511 513/513 512/512
f 512/512 513/513 514/514
f 513/513 515/515 514/514
f 514/514 515/515 516/516
f 515/515 517/517 516/516
f 516/516 517/517 518/518
f 517/517 519/519 518/518
f 518/518 519/519 520/520
f 519/519 521/521 520/520
f 520/520 521/521 522/522
f 521/521 523/523 522/522
f 522/522 523/523 524/524
f 523/523 525/525 524/524
f 524/524 525/525 526/526
f 525/525 527/527 526/526
f 526/526 527/527 528/528
f 527/527 529/529 528/528
f 528/528 529/529 530/530
f 529/529 531/531 530/530
f 530/530 531/531 532/532
f 531/531 533/533 532/532
f 532/532 533/533 534/534
f 533/533 535/535 534/534
f 534/534 535/535 536/536
f 535/535 537/537 536/536
f 536/536 537/537 538/538
f 537/537 539/539 538/538
f 538/538 539/539 540/540
f 539/539 541/541 540/540
f 540/540 541/541 542/542
f 541/541 543/543 542/542
f 542/542 543/543 544/544
f 543/543 545/545 544/544
f 544/544 545/545 546/546
f 545/545 547/547 546/546
f 546/546 547/547 548/548
f 547/547 549/549 548/548
f 548/548 549/549 550/550
f 549/549 551/551 550/550
f 550/550 551/551 552/552
f 551/551 553/553 552/552
f 552/552 553/553 554/554
f 553/553 555/555 554/554
f 554/554 555/555 556/556
f 555/555 557/557 556/556
f 556/556 557/557 558/558
f 557/557 559/559 558/558
f 558/558 559/559 560/560
f 559/559 561/561 560/560
f 560/560 561/561 562/562
f 561/561 563/563 562/562
f 562/562 563/563 564/564
f 563/563 565/565 564/564
f 564/564 565/565 566/566
f 565/565 567/567 566/566
f 566/566 567/567 568/568
f 567/567 569/569 568/568
f 568/568 569/569 570/570
f 569/569 571/571 570/570
f 570/570 571/571 572/572
f 571/571 573/573 572/572
f 572/572 573/573 574/574
f 573/573 575/575 574/574
f 574/574 575/575 576/576
f 575/575 577/577 576/576
f 576/576 577/577 578/578
f 577/577 579/579 578/578
f 578/578 579/579 580/580
f 579/579 581/581 580/580
f 580/580 581/581 582/582
f 581/581 583/583 582/582
f 582/582 583/583 584/584
f 583/583 585/585 584/584
f 584/584 585/585 586/586
f 585/585 587/587 586/586
f 586/586 587/587 588/588
f 587/587 589/589 588/588
f 588/588 589/589 590/590
f 589/589 591/591 590/590
f 590/590 591/591 592/592
f 591/591 593/593 592/592
f 592/592 593/593 594/594
f 593/593 595/595 594/594
f 594/594 595/595 596/596
f 595/595 597/597 596/596
f 596/596 597/597 598/598
f 597/597 599/599 598/598
f 598/598 599/599 600/600
f 599/599 601/601 600/600
f 600/600 601/601 602/602
f 601/601 603/603 602/602
f 602/602 603/603 604/604
f 603/603 605/605 604/604
f 604/604 605/605 606/606
f 605/605 607/607 606/606
f 606/606 607/607 608/608
f 607/607 609/609 608/608
f 608/608 609/609 610/610
f 609/609 611/611 610/610
f 610/610 611/611 612/612
f 611/611 613/613 612/612
f 612/612 613/613 614/614
f 613/613 615/615 614/614
f 614/614 615/615 616/616
f 615/615 617/617 616/616
f 616/616 617/617 618/618
f 617/617 619/619 618/618
f 618/618 619/619 620/620
f 619/619 621/621 620/620
f 620/620 621/621 622/622
f 621/621 623/623 622/622
f 622/622 623/623 624/624
f 623/623 625/625 624/624
f 624/624 625/625 626/626
f 625/625 627/627 626/626
f 626/626 627/627 628/628
f 627/627 629/629 628/628
f 628/628 629/629 630/630
f 629/629 631/631 630/630
f 630/630 631/631 632/632
f 631/631 633/633 632/632
f 632/632 633/633 634/634
f 633/633 635/635 634/634
f 634/634 635/635 636/636
f 635/635 637/637 636/636
f 636/636 637/637 638/638
f 637/637 639/639 638/638
f 638/638 639/639 640/640
f 639/639 641/641 640/640
f 640/640 641/641 642/642
f 641/641 643/643 642/642
f 642/642 643/643 644/644
f 643/643 645/645 644/644
f 644/644 645/645 646/646
f 645/645 647/647 646/646
f 646/646 647/647 648/648
f 649/649 651/651 650/650
f 650/650 651/651 652/652
f 651/651 653/653 652/652
f 652/652 653/653 654/654
f 653/653 655/655 654/654
f 654/654 655/655 656/656
f 655/655 657/657 656/656
f 656/656 657/657 658/658
f 657/657 659/659 658/658
f 658/658 659/659 660/660
f 659/659 661/661 660/660
f 660/660 661/661 662/662
f 661/661 663/663 662/662
f 662/662 663/663 664/664
f 663/663 665/665 664/664
f 664/664 665/665 666/666
f 665/665 667/667 666/666
f 666/666 667/667 668/668
f 667/667 669/669 668/668
f 668/668 669/669 670/670
f 669/669 671/671 670/670
f 670/670 671/671 672/672
f 671/671 673/673 672/672
f 672/672 673/673 674/674
f 673/673 675/675 674/674
f 674/674 675/675 676/676
f 675/675 677/677 676/676
f 676/676 677/677 678/678
f 677/677 679/679 678/678
f 678/678 679/679 680/680
f 679/679 681/681 680/680
f 680/680 681/681 682/682
f 681/681 683/683 682/682
f 682/682 683/683 684/684
f 683/683 685/685 684/684
f 684/684 685/685 686/686
f 685/685 687/687 686/686
f 686/686 687/687 688/688
f 687/687 689/689 688/688
f 688/688 689/689 690/690
f 689/689 691/691 690/690
f 690/690 691/691 692/692
f 691/691 693/693 692/692
f 692/692 693/693 694/694
f 693/693 695/695 694/694
f 694/694 695/695 696/696
f 695/695 697/697 696/696
f 696/696 697/697 698/698
f 697/697 699/699 698/698
f 698/698 699/699 700/700
f 699/699 701/701 700/700
f 700/700 701/701 702/702
f 701/701 703/703 702/702
f 702/702 703/703 704/704
f 703/703 705/705 704/704
f 704/704 705/705 706/706
f 705/705 707/707 706/706
f 706/706 707/707 708/708
f 707/707 709/709 708/708
f 708/708 709/709 710/710
f 709/709 711/711 710/710
f 710/710 711/711 712/712
f 711/711 713/713 712/712
f 712/712 713/713 714/714
f 713/713 715/715 714/714
f 714/714 715/715 716/716
f 715/715 717/717 716/716
f 716/716 717/717 718/718
f 717/717 719/719 718/718
f 718/718 719/719 720/720
f 719/719 721/721 720/720
f 720/720 721/721 722/722
f 721/721 723/723 722/722
f 722/722 723/723 724/724
f 723/723 725/725 724/724
f 724/724 725/725 726/726
f 725/725 727/727 726/726
f 726/726 727/727 728/728
f 727/727 729/729 728/728
f 728/728 729/729 730/730
f 729/729 731/731 730/730
f 730/730 731/731 732/732
f 731/731 733/733 732/732
f 732/732 733/733 734/734
f 733/733 735/735 734/734
f 734/734 735/735 736/736
f 735/735 737/737 736/736
f 736/736 737/737 738/738
f 737/737 739/739 738/738
f 738/738 739/739 740/740
f 739/739 741/741 740/740
f 740/740 741/741 742/742
f 741/741 743/743 742/742
f 742/742 743/743 744/744
f 743/743 745/745 744/744
f 744/744 745/745 746/746
f 745/745 747/747 746/746
f 746/746 747/747 748/748
f 747/747 749/749 748/748
f 748/748 749/749 750/750
f 749/749 751/751 750/750
f 750/750 751/751 752/752
f 751/751 753/753 752/752
f 752/752 753/753 754/754
f 753/753 755/755 754/754
f 754/754 755/755 756/756
f 755/755 757/757 756/756
f 756/756 757/757 758/758
f 757/757 759/759 758/758
f 758/758 759/759 760/760
f 759/759 761/761 760/760
f 760/760 761/761 762/762
f 761/761 763/763 762/762
f 762/762 763/763 764/764
f 763/763 765/765 764/764
f 764/764 765/765 766/766
f 765/765 767/767 766/766
f 766/766 767/767 768/768
f 767/767 769/769 768/768
f 768/768 769/769 770/770
f 769/769 771/771 770/770
f 770/770 771/771 772/772
f 771/771 773/773 772/772
f 772/772 773/773 774/774
f 773/773 775/775 774/774
f 774/774 775/775 776/776
f 775/775 777/777 776/776
f 776/776 777/777 778/778
f 777/777 779/779 778/778
f 778/778 779/779 780/780
f 779/779 781/781 780/780
f 780/780 781/781 782/782
f 781/781 783/783 782/782
f 782/782 783/783 784/784
f 783/783 785/785 784/784
f 784/784 785/785 786/786
f 785/785 787/787 786/786
f 786/786 787/787 788/788
f 787/787 789/789 788/788
f 788/788 789/789 790/790
f 789/789 791/791 790/790
f 790/790 791/791 792/792
f 791/791 793/793 792/792
f 792/792 793/793 794/794
f 793/793 795/795 794/794
f 794/794 795/795 796/796
f 795/795 797/797 796/796
f 796/796 797/797 798/798
f 797/797 799/799 798/798
f 798/798 799/799 800/800
f 799/799 801/801 800/800
f 800/800 801/801 802/802
f 801/801 803/803 802/802
f 802/802 803/803 804/804
f 803/803 805/805 804/804
f 804/804 805/805 806/806
f 805/805 807/807 806/806
f 806/806 807/807 808/808
f 807/807 809/809 808/808
f 808/808 809/809 810/810